<svg width="105" height="33" fill="none" xmlns="http://www.w3.org/2000/svg"><rect width="105" height="33" rx="4" fill="#FAF9FF"/><path d="M9 21h1.5v-2.9h1.7c1.9 0 3-1.1 3-2.8 0-1.6-1.1-2.8-3-2.8H9V21zm1.5-4.1v-3.1H12c1.1 0 1.6.6 1.6 1.5s-.5 1.6-1.6 1.6h-1.5zm10.9-4.4V18c0 1-.7 1.8-1.9 1.8s-1.9-.8-1.9-1.8v-5.5H16V18c0 1.9 1.4 3.1 3.5 3.1S23 19.9 23 18v-5.5h-1.6zm2.8 8.5h1.5v-3.1h1.6L29 21h1.6l-1.8-3.4c1-.4 1.5-1.2 1.5-2.4 0-1.6-1-2.7-3-2.7h-3.1V21zm1.5-4.4v-2.8h1.4c1.2 0 1.7.5 1.7 1.4 0 .9-.5 1.4-1.7 1.4h-1.4zm6.7 4.4l.6-2.1h3.3L37 21h1.6l-3-8.5h-1.9l-3 8.5h1.7zm1.1-3.3l1.1-3.4h.1l1.1 3.4h-2.3zm7-5.2h-1.7l2.6 4.3-2.7 4.2h1.8l1.9-3h.1l1.8 3h1.8l-2.6-4.2 2.5-4.3h-1.7l-1.8 3.1h-.1l-1.9-3.1zm6.3 8.5h5.6v-1.3h-4.1v-2.3H52v-1.3h-3.7v-2.3h4v-1.3h-5.5V21zm6.6 0h5.3v-1.3H55v-7.2h-1.6V21zm8.6 0h5.3v-1.3h-3.7v-7.2H62V21zm7.6 0l.7-2.1h3.2l.7 2.1h1.6l-3-8.5H71L68 21h1.6zm1.1-3.3l1.2-3.4h.1l1 3.4h-2.3zM81 14.8h1.4c0-1.4-1.2-2.4-3-2.4s-3.1 1-3.1 2.5c0 1.2.8 1.9 2.2 2.3l1 .2c.9.3 1.5.6 1.5 1.2 0 .7-.7 1.2-1.7 1.2-.9 0-1.7-.4-1.8-1.3H76c.1 1.7 1.4 2.6 3.3 2.6 2.1 0 3.2-1 3.2-2.5s-1.2-2.1-2.5-2.4l-.7-.2c-.7-.2-1.5-.5-1.5-1.2 0-.6.6-1.1 1.6-1.1.9 0 1.5.4 1.6 1.1zm2.5 6.2H89v-1.3h-4v-2.3h3.7v-1.3H85v-2.3h4v-1.3h-5.5V21zm6.5 0h1.6v-3.1h1.6l1.7 3.1h1.7l-1.9-3.4c1-.4 1.5-1.2 1.6-2.4-.1-1.6-1.1-2.7-3-2.7H90V21zm1.6-4.4v-2.8H93c1.2 0 1.7.5 1.7 1.4 0 .9-.5 1.4-1.7 1.4h-1.4z" fill="#55576F"/><rect x=".4" y=".4" width="104.164" height="32.164" rx="3.582" stroke="url(#paint0_linear_1476_16203)" stroke-opacity=".5" stroke-width=".836"/><defs><linearGradient id="paint0_linear_1476_16203" x1="98.664" y1="27.696" x2="4.155" y2="14.307" gradientUnits="userSpaceOnUse"><stop stop-color="#BDA8D9"/><stop offset="1" stop-color="#F5F0FF"/></linearGradient></defs></svg>