<svg width="77" height="31" fill="none" xmlns="http://www.w3.org/2000/svg"><rect x="1" y="1" width="75" height="29" rx="4" fill="#55576F"/><path d="M13.8 20h1.5v-2.9H17c2 0 3-1.1 3-2.8 0-1.6-1-2.8-3-2.8h-3.2V20zm1.5-4.1v-3.1h1.5c1.2 0 1.6.6 1.6 1.5s-.4 1.6-1.6 1.6h-1.5zm10.9-4.4V17c0 1-.7 1.8-1.9 1.8s-1.9-.8-1.9-1.8v-5.5h-1.5V17c0 1.9 1.3 3.1 3.4 3.1 2.1 0 3.5-1.2 3.5-3.1v-5.5h-1.6zM29 20h1.5v-3.1H32l1.8 3.1h1.6l-1.8-3.4c1-.4 1.5-1.2 1.5-2.4 0-1.6-1-2.7-2.9-2.7H29V20zm1.5-4.4v-2.8H32c1 0 1.6.5 1.6 1.4 0 .9-.6 1.4-1.6 1.4h-1.5zm6.7 4.4l.7-2.1H41l.8 2.1h1.6l-3-8.5h-1.9l-3 8.5h1.7zm1.1-3.3l1.1-3.4h.1l1.2 3.4h-2.4zm7-5.2h-1.7l2.6 4.3-2.7 4.2h1.8l1.9-3h.1l1.9 3H51l-2.7-4.2 2.6-4.3h-1.7l-1.9 3.1h-.1l-1.9-3.1zm6.3 8.5h5.6v-1.3h-4v-2.3h3.7v-1.3h-3.7v-2.3h4v-1.3h-5.6V20zm6.7 0h5.2v-1.3h-3.7v-7.2h-1.5V20z" fill="#fff"/><rect x="1" y="1" width="75" height="29" rx="4" stroke="#fff" stroke-width=".5"/></svg>