<svg width="108" height="33" fill="none" xmlns="http://www.w3.org/2000/svg"><rect width="108" height="33" rx="4" fill="#FAF9FF"/><path d="M14.7 15.2h1.6c-.3-1.6-1.7-2.8-3.6-2.8-2.2 0-3.9 1.6-3.9 4.4 0 2.6 1.6 4.3 4 4.3 2.1 0 3.6-1.3 3.6-3.5v-1H13v1.2h1.9c0 1.2-.9 1.9-2.1 1.9-1.5 0-2.4-1-2.4-3 0-1.9 1-2.9 2.3-2.9 1.1 0 1.8.5 2 1.4zm3.5 5.8l.7-2.1H22l.8 2.1h1.6l-3-8.5h-1.8l-3 8.5h1.6zm1.1-3.3l1.2-3.4 1.2 3.4h-2.4zM25 21h5.4v-1.3h-3.8v-7.2H25V21zm6.5-8.5h-1.7l3 8.5h1.8l3-8.5H36l-2.2 6.7h-.1l-2.2-6.7zm6.9 8.5l.6-2.1h3.3L43 21h1.6l-3-8.5h-1.9l-3 8.5h1.7zm1.1-3.3l1.1-3.4h.1l1.2 3.4h-2.4zm12.7-5.2h-1.5v5.8h-.1l-4-5.8h-1.3V21h1.5v-5.8l4.1 5.8h1.3v-8.5zm2.8 0h-1.6V21H55v-8.5zm6.9 2.9h1.5c-.2-1.9-1.7-3-3.5-3-2.3 0-3.9 1.6-3.9 4.4 0 2.7 1.6 4.3 3.9 4.3 2 0 3.3-1.3 3.5-2.9h-1.5c-.2 1-1 1.5-2 1.5-1.4 0-2.4-1-2.4-2.9 0-2 1-3 2.4-3 1.1 0 1.8.6 2 1.6zm5-2.9V21h1.5v-5.9l2.4 5.9h1.1l2.3-5.8h.1V21h1.5v-8.5h-1.9l-2.5 6.2h-.1l-2.5-6.2h-1.9zm17.7 4.3c0-2.8-1.7-4.4-3.9-4.4-2.3 0-3.9 1.6-3.9 4.4 0 2.7 1.6 4.3 3.9 4.3 2.2 0 3.9-1.6 3.9-4.3zm-6.3 0c0-2 1-3 2.4-3 1.3 0 2.3 1 2.3 3 0 1.9-1 2.9-2.3 2.9-1.4 0-2.4-1-2.4-2.9zM88.4 21c2.6 0 4.1-1.6 4.1-4.3 0-2.6-1.5-4.2-4-4.2h-2.9V21h2.8zM87 19.7v-5.9h1.4c1.7 0 2.6 1 2.6 2.9 0 2-.9 3-2.6 3H87zm6.5 1.3H99v-1.3h-4v-2.3h3.8v-1.3H95v-2.3h4v-1.3h-5.5V21z" fill="#55576F"/><rect x=".4" y=".4" width="107.164" height="32.164" rx="3.582" stroke="url(#paint0_linear_1095_14644)" stroke-opacity=".5" stroke-width=".836"/><defs><linearGradient id="paint0_linear_1095_14644" x1="101.483" y1="27.696" x2="4.385" y2="13.547" gradientUnits="userSpaceOnUse"><stop stop-color="#BDA8D9"/><stop offset="1" stop-color="#F5F0FF"/></linearGradient></defs></svg>