<svg width="49" height="22" fill="none" xmlns="http://www.w3.org/2000/svg"><path d="M47.7 1.2c.3-.3.3-.6 0-.9-.3-.3-.6-.3-.9 0l-6.5 6.5.9.9 6.5-6.5zM35 2.4c-3.2-3.1-8.3-3.1-11.5 0l-4.3 4.4.9.9 4.4-4.3C27.1.8 31.4.8 34 3.4l12.8 12.8c.3.3.6.3.9 0 .3-.4.3-.7 0-1L35 2.4z" fill="#55576F"/><path d="M38.4 8.7L34 13c-2.6 2.7-6.9 2.7-9.5 0L13.9 2.4C8.8-2.7 0 1 0 8.2v12.6c0 .5.2.7.7.7.5 0 .7-.2.7-.7v-8.1c2.8 4.3 8.9 4.9 12.5 1.3l4.3-4.4-.9-.9L13 13C8.7 17.3 1.4 14.2 1.4 8.2S8.7-.9 13 3.4L23.5 14c3.2 3.1 8.3 3.1 11.5 0l4.3-4.4-.9-.9z" fill="#55576F"/></svg>