<svg width="125" height="35" viewBox="0 0 125 35" fill="none" xmlns="http://www.w3.org/2000/svg">
<rect width="125" height="35" rx="17.5" fill="#FAF9FF"/>
<path d="M19.482 15.6706H21.1895C20.9071 13.8475 19.3215 12.5765 17.2737 12.5765C14.8408 12.5765 13.0177 14.3675 13.0242 17.3524C13.0177 20.2989 14.7574 22.1284 17.3251 22.1284C19.6232 22.1284 21.2665 20.6455 21.2665 18.2511V17.1342H17.492V18.4565H19.6489C19.6232 19.7789 18.7309 20.6263 17.3251 20.6263C15.7716 20.6263 14.6996 19.4515 14.706 17.3396C14.6996 15.2469 15.7909 14.0786 17.2866 14.0786C18.4164 14.0786 19.1803 14.682 19.482 15.6706ZM23.2729 22L24.0433 19.7019H27.5418L28.3185 22H30.1031L26.8164 12.7049H24.7622L21.4884 22H23.2729ZM24.4926 18.3538L25.7508 14.605H25.8278L27.0924 18.3538H24.4926ZM30.8128 22H36.5902V20.5878H32.4818V12.7049H30.8128V22ZM37.8006 12.7049H35.9647L39.2385 22H41.2927L44.5794 12.7049H42.7435L40.317 20.0357H40.2142L37.8006 12.7049ZM45.379 22L46.1493 19.7019H49.6478L50.4245 22H52.2091L48.9224 12.7049H46.8682L43.5944 22H45.379ZM46.5986 18.3538L47.8568 14.605H47.9338L49.1984 18.3538H46.5986ZM60.5578 12.7049H58.9016V19.06H58.8117L54.4338 12.7049H52.9188V22H54.5878V15.6449H54.6649L59.0685 22H60.5578V12.7049ZM63.5528 12.7049H61.8837V22H63.5528V12.7049ZM71.1568 15.8375H72.8387C72.5498 13.7705 70.9642 12.5765 68.9101 12.5765C66.4771 12.5765 64.6541 14.3482 64.6605 17.3524C64.6541 20.3502 66.4579 22.1284 68.9101 22.1284C71.1119 22.1284 72.5819 20.7033 72.8387 18.9187H71.1568C70.9321 20.01 70.0399 20.6263 68.9357 20.6263C67.4208 20.6263 66.3359 19.4901 66.3423 17.3524C66.3359 15.2469 67.4144 14.0786 68.9357 14.0786C70.0655 14.0786 70.9578 14.7205 71.1568 15.8375ZM76.6076 12.7049V22H78.2252V15.5807H78.3023L80.8828 21.9743H82.0768L84.6574 15.6064H84.7472V22H86.3521V12.7049H84.2979L81.5376 19.458H81.422L78.6617 12.7049H76.6076ZM95.9718 17.3524C95.9782 14.3482 94.1423 12.5765 91.7093 12.5765C89.2636 12.5765 87.4405 14.3482 87.4469 17.3524C87.4405 20.3502 89.2636 22.1284 91.7093 22.1284C94.1423 22.1284 95.9782 20.3567 95.9718 17.3524ZM89.1288 17.3524C89.1224 15.2276 90.1944 14.0786 91.7093 14.0786C93.2307 14.0786 94.2963 15.2276 94.2899 17.3524C94.2963 19.4772 93.2307 20.6263 91.7093 20.6263C90.1944 20.6263 89.1224 19.4772 89.1288 17.3524ZM100.225 22C103.049 22 104.725 20.2475 104.731 17.3396C104.725 14.4445 103.049 12.7049 100.276 12.7049H97.0666V22H100.225ZM98.7357 20.5492V14.1556H100.186C102.08 14.1492 103.062 15.2084 103.062 17.3396C103.062 19.4836 102.08 20.5557 100.135 20.5492H98.7357ZM105.813 22H111.886V20.5878H107.482V18.0457H111.539V16.6463H107.482V14.1043H111.86V12.7049H105.813V22Z" fill="#55576F"/>
<rect x="0.418103" y="0.418103" width="124.164" height="34.1638" rx="17.0819" stroke="url(#paint0_linear_804_12467)" stroke-opacity="0.5" stroke-width="0.836207"/>
<defs>
<linearGradient id="paint0_linear_804_12467" x1="117.457" y1="29.375" x2="5.51943" y2="11.5744" gradientUnits="userSpaceOnUse">
<stop stop-color="#BDA8D9"/>
<stop offset="1" stop-color="#F5F0FF"/>
</linearGradient>
</defs>
</svg>
