<svg width="122" height="35" viewBox="0 0 122 35" fill="none" xmlns="http://www.w3.org/2000/svg">
<rect width="122" height="35" rx="17.5" fill="#FAF9FF"/>
<path d="M13.3472 22H15.0163V18.8545H16.8137C18.9577 18.8545 20.1068 17.5643 20.1132 15.7861C20.1068 14.0016 18.9705 12.7049 16.8393 12.7049H13.3472V22ZM15.0163 17.4808V14.1043H16.5826C17.8407 14.1043 18.4056 14.7911 18.4056 15.7861C18.4056 16.7683 17.8407 17.4744 16.5826 17.4808H15.0163ZM26.9341 12.7049V18.6363C26.9341 19.811 26.1252 20.6455 24.8414 20.6519C23.5575 20.6455 22.7423 19.811 22.7358 18.6363V12.7049H21.0668V18.7775C21.0732 20.7739 22.5625 22.1412 24.8414 22.1412C27.1074 22.1412 28.6095 20.7739 28.6159 18.7775V12.7049H26.9341ZM29.9419 22H31.6109V18.5978H33.357L35.18 22H37.0416L35.0324 18.3153C36.1237 17.8724 36.7014 16.9352 36.7078 15.6706C36.7014 13.8988 35.5652 12.7049 33.434 12.7049H29.9419V22ZM31.6109 17.1984V14.1043H33.1772C34.4354 14.1043 35.0003 14.682 35.0003 15.6706C35.0003 16.6656 34.4354 17.2048 33.1772 17.1984H31.6109ZM38.9325 22L39.7028 19.7019H43.2013L43.9781 22H45.7626L42.476 12.7049H40.4218L37.1479 22H38.9325ZM40.1522 18.3538L41.4104 14.605H41.4874L42.752 18.3538H40.1522ZM47.8718 12.7049H45.946L48.8475 17.3524L45.9075 22H47.8332L49.9131 18.6106H49.9901L52.07 22H54.0086L51.0943 17.3524L53.9573 12.7049H52.0571L49.9901 16.1199H49.9131L47.8718 12.7049ZM54.7697 22H60.8423V20.5878H56.4387V18.0457H60.4957V16.6463H56.4387V14.1043H60.8167V12.7049H54.7697V22ZM62.0271 22H67.8045V20.5878H63.6961V12.7049H62.0271V22ZM71.4706 22H77.248V20.5878H73.1397V12.7049H71.4706V22ZM79.7295 22L80.4998 19.7019H83.9983L84.775 22H86.5596L83.2729 12.7049H81.2187L77.9449 22H79.7295ZM80.9491 18.3538L82.2073 14.605H82.2843L83.5489 18.3538H80.9491ZM92.1865 15.2597H93.7913C93.7656 13.687 92.424 12.5765 90.4533 12.5765C88.4954 12.5765 87.0382 13.6678 87.0382 15.3111C87.0382 16.6463 87.9883 17.4166 89.5161 17.8146L90.5688 18.0842C91.5767 18.341 92.2443 18.6491 92.2507 19.3809C92.2443 20.1769 91.4868 20.7097 90.3891 20.7161C89.3299 20.7097 88.5147 20.2347 88.4376 19.2654H86.7943C86.8649 21.1013 88.2386 22.1412 90.4019 22.1412C92.6294 22.1412 93.9197 21.0243 93.9197 19.3938C93.9197 17.7761 92.5845 17.0443 91.1979 16.7233L90.3249 16.4922C89.5546 16.3125 88.7265 15.9915 88.7329 15.2084C88.7393 14.5087 89.3684 13.9951 90.4276 14.0016C91.429 13.9951 92.103 14.4573 92.1865 15.2597ZM94.9119 22H100.985V20.5878H96.5809V18.0457H100.638V16.6463H96.5809V14.1043H100.959V12.7049H94.9119V22ZM102.169 22H103.838V18.5978H105.584L107.407 22H109.269L107.26 18.3153C108.351 17.8724 108.929 16.9352 108.935 15.6706C108.929 13.8988 107.793 12.7049 105.661 12.7049H102.169V22ZM103.838 17.1984V14.1043H105.405C106.663 14.1043 107.228 14.682 107.228 15.6706C107.228 16.6656 106.663 17.2048 105.405 17.1984H103.838Z" fill="#55576F"/>
<rect x="0.418103" y="0.418103" width="121.164" height="34.1638" rx="17.0819" stroke="url(#paint0_linear_762_12509)" stroke-opacity="0.5" stroke-width="0.836207"/>
<defs>
<linearGradient id="paint0_linear_762_12509" x1="114.638" y1="29.375" x2="5.25902" y2="12.3987" gradientUnits="userSpaceOnUse">
<stop stop-color="#BDA8D9"/>
<stop offset="1" stop-color="#F5F0FF"/>
</linearGradient>
</defs>
</svg>
