<svg width="105" height="33" fill="none" xmlns="http://www.w3.org/2000/svg"><rect width="82" height="33" rx="4" fill="#FAF9FF"/><path d="M17.5 11.4h-1.3V22h1.3V11.4zm-8.9 7.1l.2 1c1.9 0 4.4 0 6.7-.4l-.1-.9-1.5.1v-4.8H15v-1H9v1h1v5H8.6zm2.6-.1v-4.9h1.4v4.9h-1.4zm17.1-.8h-9.7v1h4.2V22h1.3v-3.4h4.2v-1zm-8.5-1.1h7.4v-4.6h-1.4v1.3h-4.7v-1.3h-1.3v4.6zm1.3-1v-1.3h4.7v1.3h-4.7zM40 11.4h-1.3v2.5h-1.8V15h1.8v2.2H40v-5.8zm-8.9 5l.7 1C33 17 34 16.1 34.4 15c.5 1 1.3 1.8 2.5 2.2l.6-1C36 15.6 35 14.3 35 13h2.2v-1h-5.7v1h2.2c0 1.4-.9 2.8-2.6 3.4zM33 22h7v-4.3h-1.3v1.1h-4.4v-1.1H33V22zm1.3-1.1v-1.1h4.4v1.1h-4.4zM50.8 17h-4.2v-1.2h-1.3V17h-4.1v1h9.6v-1zm-9.2-1.7l.4 1c2-.2 3.3-.8 4-1.7.6.9 2 1.5 4 1.7l.3-1c-2.2-.2-3.5-.9-3.6-1.8h3.2v-1.1h-3.3v-1h-1.3v1h-3.2v1.1h3.1c-.1.9-1.3 1.6-3.6 1.8zm.6 4.6h6.1V22h1.3v-3.2h-7.4v1.1zm20.5-8.5h-1.2v8h1.2v-8zM53.6 17l.7 1c1-.5 1.7-1.3 2-2.3.4.9 1 1.6 1.9 2l.7-1c-1.4-.7-1.9-1.8-1.9-3.1v-1.4h-1.3v1.4c0 1.3-.7 2.7-2.1 3.4zm2 4.8H63v-1h-6v-2.4h-1.4v3.4zM58 15h1.4v4h1.2v-7.4h-1.2V14H58v1zm9.6-1v-1.7h-1.3V14c0 2-1 4-2.7 4.8l.8 1.1c1.2-.6 2.1-1.9 2.6-3.3.4 1.4 1.2 2.4 2.4 3.1l.8-1.1c-1.7-.7-2.6-2.6-2.6-4.6zm1.4 2h2.3v6h1.3V11.4h-1.3v3.5H69V16z" fill="#55576F"/><rect x=".4" y=".4" width="81.164" height="32.164" rx="3.582" stroke="url(#paint0_linear_1476_16201)" stroke-opacity=".5" stroke-width=".836"/><defs><linearGradient id="paint0_linear_1476_16201" x1="77.052" y1="27.696" x2="2.674" y2="19.467" gradientUnits="userSpaceOnUse"><stop stop-color="#BDA8D9"/><stop offset="1" stop-color="#F5F0FF"/></linearGradient></defs></svg>