<svg width="32" height="32" fill="none" xmlns="http://www.w3.org/2000/svg"><path d="M32 0H0v32h32V0z" fill="#A7ABB6"/><path d="M20.6 17c0 1-.3 2-.9 2.8-.5.8-1.3 1.4-2.2 1.8-1 .4-2 .4-2.9.2-1-.1-1.9-.6-2.6-1.3-.7-.7-1.2-1.5-1.4-2.5-.2-1-.1-2 .3-2.9.4-.9 1.1-1.6 1.8-2.1.9-.6 1.8-.9 2.8-.9 1.4 0 2.7.5 3.6 1.5.9.9 1.5 2.1 1.5 3.4zm2.4 0c0-1.4-.4-2.9-1.2-4-.8-1.3-2-2.2-3.4-2.8-1.4-.5-2.9-.7-4.4-.4-1.4.2-2.7 1-3.8 2-1 1-1.8 2.4-2.1 3.8-.2 1.4-.1 2.9.5 4.2.5 1.4 1.5 2.5 2.8 3.4 1.2.8 2.6 1.2 4.1 1.2 2 0 4-.8 5.4-2.2C22.3 20.9 23 19 23 17zm3.4-8.8c0-.3-.1-.7-.4-1-.1-.2-.4-.5-.8-.7l-1.1-.1c-.3.1-.7.3-.9.6-.2.2-.5.5-.5.9-.1.3-.1.7.1 1.1l.7.8c.3.2.6.2 1 .2.5 0 1-.1 1.3-.5.4-.3.6-.8.6-1.3z" fill="#fff" stroke="#fff" stroke-width=".6"/></svg>