<svg width="32" height="32" viewBox="0 0 32 32" fill="none" xmlns="http://www.w3.org/2000/svg">
<path d="M31.9906 0H0.009375C0.00419733 0 0 0.00419733 0 0.009375V31.9906C0 31.9958 0.00419733 32 0.009375 32H31.9906C31.9958 32 32 31.9958 32 31.9906V0.009375C32 0.00419733 31.9958 0 31.9906 0Z" fill="#A7ABB6"/>
<path d="M24.7058 20.6917L25.4137 16.0936H21.0046V13.1111C21.0046 11.8559 21.6194 10.6256 23.5942 10.6256H25.6V6.71107C25.6 6.71107 23.7805 6.40039 22.0416 6.40039C18.4088 6.40039 16.0365 8.6 16.0365 12.5891V16.0936H12V20.6917H16.0365V32.0004H21.0046V20.6917H24.7058Z" fill="white"/>
</svg>
